<svg xmlns="http://www.w3.org/2000/svg" xmlns:xlink="http://www.w3.org/1999/xlink" id="Layer_1" data-name="Layer 1" viewBox="0 0 839.6 204.7">
   <defs>
      <style>.cls-1{fill:#00212f;}.cls-2{fill:url(#linear-gradient);}.cls-3{fill:url(#linear-gradient-2);}.cls-4{fill:url(#linear-gradient-3);}.cls-5{fill:url(#linear-gradient-4);}.cls-6{fill:none;stroke:#00212f;stroke-miterlimit:10;stroke-width:2.68px;}</style>
      <linearGradient id="linear-gradient" x1="224.95" y1="607.77" x2="289.88" y2="607.77" gradientUnits="userSpaceOnUse">
         <stop offset="0" stop-color="#33b7a3"/>
         <stop offset="1" stop-color="#3278b5"/>
      </linearGradient>
      <linearGradient id="linear-gradient-2" x1="285.73" y1="505.53" x2="374.63" y2="505.53" xlink:href="#linear-gradient"/>
      <linearGradient id="linear-gradient-3" x1="184.85" y1="524.52" x2="279.01" y2="524.52" xlink:href="#linear-gradient"/>
      <linearGradient id="linear-gradient-4" x1="356.43" y1="627.99" x2="433.55" y2="627.99" xlink:href="#linear-gradient"/>
   </defs>
   <title>trace-logo-color</title>
   <path class="cls-1" d="M543.1,496.79v74.94H521.53V496.79H491.12v-19.7h82.55v19.7Z" transform="translate(-147.13 -464.58)"/>
   <path class="cls-1" d="M676.7,571.73H653.59L633,544.27H617v27.46H595.4V477.09h37.7c26.22,0,40.81,12.41,40.81,34.45,0,14.27-7.14,24.36-19.55,29.32L676.7,570Zm-43.29-45.14c12.26,0,19.08-5.44,19.08-15.05,0-9.78-6.82-15.52-19.08-15.52H617v30.57Z" transform="translate(-147.13 -464.58)"/>
   <path class="cls-1" d="M715.5,571.73H692.22L729,477.09h29.32l36.62,94.64H771.82l-6.68-17.52H722Zm31-67.8a83.16,83.16,0,0,1-2.95-9.61c-.78,2.63-1.71,5.74-3.11,9.61L729.15,534.5H758Z" transform="translate(-147.13 -464.58)"/>
   <path class="cls-1" d="M894.1,562.12a72.83,72.83,0,0,1-39.72,11c-28.56,0-46.09-17.37-46.09-48.56,0-31.34,17.53-49,47.64-49a77.08,77.08,0,0,1,34.75,8.38l-6.52,16.29c-10.7-3.42-19.24-5.12-27.3-5.12-17.39,0-26.69,9.93-26.69,29.48.15,17.69,9.77,29,25.13,29,11.49,0,19.87-2.17,31.5-7.75Z" transform="translate(-147.13 -464.58)"/>
   <path class="cls-1" d="M917.69,571.73V477.09h67.8v19.7H939.25v18.63H979v18.93H939.25v18h47.48v19.39Z" transform="translate(-147.13 -464.58)"/>
   <path class="cls-1" d="M540.32,651.78a33.68,33.68,0,0,1-20.76,6.54c-12.54,0-20.15-8.5-20.15-23.61s7.68-23.7,21.43-23.7a39.16,39.16,0,0,1,17.07,3.91l-1.12,2.79a37.44,37.44,0,0,0-15.72-3.54c-11.88,0-18.26,7.38-18.26,20.54s6.31,20.45,16.84,20.45c6.69,0,12.25-1.43,17.36-5.11v-12H518.37V635h22Z" transform="translate(-147.13 -464.58)"/>
   <path class="cls-1" d="M568.34,657.64V611.76h29v3.16H571.72v17.75h22.64v3.16H571.72v18.65h26.41v3.16Z" transform="translate(-147.13 -464.58)"/>
   <path class="cls-1" d="M660,657.64l-30.46-40.09v40.09h-3.39V611.76h3.17L659.69,652V611.76h3.38v45.88Z" transform="translate(-147.13 -464.58)"/>
   <path class="cls-1" d="M728.88,634.71c0,15.11-7.6,23.61-20.92,23.61s-20.9-8.5-20.9-23.61S694.66,611,708,611,728.88,619.51,728.88,634.71Zm-3.4,0c0-13.25-6.3-20.54-17.52-20.54s-17.51,7.29-17.51,20.54,6.31,20.45,17.51,20.45S725.48,647.87,725.48,634.71Z" transform="translate(-147.13 -464.58)"/>
   <path class="cls-1" d="M794.4,620.49v-1.65L777,657.64h-3.3l-17.37-38.8v1.65l-1.36,37.15h-3.38l1.51-45.88h3.84l17.52,39.34c.29.82.66,1.65.89,2.41a18.08,18.08,0,0,1,1-2.41l17.45-39.34h3.83l1.58,45.88h-3.46Z" transform="translate(-147.13 -464.58)"/>
   <path class="cls-1" d="M825,657.64V611.76h3.39v45.88Z" transform="translate(-147.13 -464.58)"/>
   <path class="cls-1" d="M892.7,652.59c-4.05,3.69-10.6,5.73-18.5,5.73-13.16,0-20.74-8.5-20.74-23.61S861,611,875,611c5.55,0,12,1.5,15.85,3.91l-1.28,2.56c-3.67-2-9.55-3.31-14.43-3.31-12,0-18.28,7.29-18.28,20.54,0,13,6.33,20.45,17.52,20.45,7.15,0,12.87-1.81,16.78-5.11Z" transform="translate(-147.13 -464.58)"/>
   <path class="cls-1" d="M941.52,617.48A33.81,33.81,0,0,0,926.39,614c-6.3,0-10.21,3.69-10.21,7.82,0,5.57,3.08,7.22,13.37,10.68,10.76,3.54,14.89,6.7,14.89,13.69,0,8.95-7,12.11-14.65,12.11a29,29,0,0,1-19.33-7.15l1.64-2.56a26.87,26.87,0,0,0,17.61,6.62c7.52,0,11.28-3.09,11.28-8.65s-2.86-7.75-13.84-11.43c-9.69-3.23-14.44-5.18-14.44-13.08,0-6.4,5.34-11.06,13.68-11.06a36.5,36.5,0,0,1,16.25,3.77Z" transform="translate(-147.13 -464.58)"/>
   <path class="cls-1" d="M383.66,669.28H330c-.4,0-.75-.1-1.2-.1-10.83-.58-21.2-16.06-31.28-37.86-6.68-14.45-13.27-31.53-19.84-49-1.6-4.21-3.14-8.3-4.79-12.43-6.78-17.5-13.58-34.26-20.4-47.34C261.14,506.16,270,495.4,279,495.4h.15c.36,0,.7.07,1,.07,6,.25,11.82,5.13,17.43,13.08,9.85,13.69,19.34,36.76,28.91,61.37,1.6,4.13,3.19,8.22,4.8,12.43,8.37,22,16.7,43.57,25.09,59.82,8.5,15.92,17.08,26.62,26,27,.45,0,.76.1,1.21.1" transform="translate(-147.13 -464.58)"/>
   <path class="cls-2" d="M272.78,584.14c5.43,14.62,11.26,29.81,17.1,43.33a153.9,153.9,0,0,1-12.76,22.31c-6.6,9-13.36,14.63-20.27,15h-1.32c-10.33,0-20.62-12.38-30.58-31.33,7.87-15,15.75-34.33,23.63-54.41,1.9-4.86,3.58-9.56,5.45-14.24s3.55-9.38,5.43-14.07c3,7.12,5.82,14.25,8.44,21.18,1.34,3,2.43,6.2,3.73,9.19Z" transform="translate(-147.13 -464.58)"/>
   <path class="cls-3" d="M374.63,464.63c-10.32.57-20.07,12.76-29.82,31.15-7.32,14.07-14.61,31.89-21.94,50.64-6.74-15.93-13.69-30.95-20.81-40.88-5.45-7.71-10.89-12.39-16.33-14.28,8.65-15.74,17.83-26.06,27.21-26.63Z" transform="translate(-147.13 -464.58)"/>
   <path class="cls-1" d="M208.85,597.81H147.13c15,37.1,30.63,67.06,46.67,67.06h61.73c-10.33,0-20.56-12.4-30.52-31.31-5.42-10.34-10.8-22.56-16.16-35.75" transform="translate(-147.13 -464.58)"/>
   <path class="cls-1" d="M376.07,464.58c-.51,0-.89.1-1.39.1-10.34.49-20.2,12.8-29.93,31.15,9.27,17.41,16.87,29.71,27.07,63.86h61.73c-14.59-49-35.29-95.11-57.48-95.11" transform="translate(-147.13 -464.58)"/>
   <path class="cls-4" d="M225.41,495.41c-13.93,0-27.54,26-40.56,58.21h53.61c4.61-11.48,9.34-22.07,14-31,8.65-16.41,17.55-27.17,26.52-27.17Z" transform="translate(-147.13 -464.58)"/>
   <path class="cls-5" d="M433.55,586.69H380c-7.69,20.46-15.48,40.34-23.55,55.48,8.5,15.92,17,26.6,26,27.05.43,0,.74.06,1.19.06C401,669.28,417.68,629.16,433.55,586.69Z" transform="translate(-147.13 -464.58)"/>
   <line class="cls-6" x1="315.2" y1="0.05" x2="315.2" y2="204.7"/>
</svg>
